<svg xmlns="http://www.w3.org/2000/svg" viewBox="0 0 919.4 263.31">
  <path fill="currentColor" d="m369.89,124.51c0-27.62-22.39-50-50-50s-50,22.38-50,50,22.38,50,50,50c9.52,0,18.42-2.67,26-7.29,1.98,4.3,6.32,7.29,11.37,7.29,6.9,0,12.5-5.6,12.5-12.5,0-.39-.02-.78-.05-1.17h.18v-36.33Zm-50,25c-13.81,0-25-11.19-25-25s11.19-25,25-25,25,11.19,25,25-11.19,25-25,25Z"/>
  <path fill="currentColor" d="m484.89,74.51c-27.62,0-50,22.38-50,50s22.38,50,50,50,50-22.39,50-50-22.39-50-50-50Zm0,75c-13.81,0-25-11.2-25-25s11.19-25,25-25,25,11.19,25,25-11.2,25-25,25Z"/>
  <path fill="currentColor" d="m604.89,74.51c-27.62,0-50,22.38-50,50s22.38,50,50,50,50-22.39,50-50-22.39-50-50-50Zm0,75c-13.81,0-25-11.2-25-25s11.19-25,25-25,25,11.19,25,25-11.2,25-25,25Z"/>
  <path fill="currentColor" d="m774.89,124.51v37.06c0,6.9-5.6,12.5-12.5,12.5s-12.5-5.6-12.5-12.5v-37.06c0-13.81-11.2-25-25-25s-25,11.19-25,25v37.5c0,6.91-5.6,12.5-12.5,12.5s-12.5-5.59-12.5-12.5v-37.5c0-27.62,22.38-50,50-50s49.76,22.14,49.99,49.56c.01.15.01.29.01.44Z"/>
  <path fill="currentColor" d="m794.66,128.09v.44c0-.15,0-.29-.01-.44h.01Z"/>
  <path fill="currentColor" d="m249.89,124.51v37.5c0,6.9-5.6,12.5-12.5,12.5s-12.5-5.6-12.5-12.5v-37.5c0-13.81-11.2-25-25-25s-25,11.19-25,25v37.5c0,6.9-5.59,12.5-12.5,12.5s-12.5-5.6-12.5-12.5V37.01c0-6.9,5.6-12.5,12.5-12.5,3.45,0,6.58,1.4,8.84,3.66s3.66,5.39,3.66,8.84v44.19c7.35-4.25,15.89-6.69,25-6.69,27.61,0,50,22.38,50,50Z"/>
  <rect fill="currentColor" x="389.89" y="24.51" width="25" height="150" rx="12.5" ry="12.5"/>
  <path fill="currentColor" d="m894.88,126.36c-.23-27.42-22.53-49.56-49.99-49.56s-50,22.38-50,50,22.38,50,50,50c9.11,0,17.65-2.44,25-6.69v18.75c-.03,13.78-11.21,24.94-25,24.94s-25-11.19-25-25c0-6.9-5.59-12.5-12.5-12.5s-12.5,5.6-12.5,12.5c0,27.62,22.39,50,50,50s49.97-22.35,50-49.94v-62.06c0-.15,0-.29-.01-.44Zm-49.99,25.44c-13.81,0-25-11.2-25-25s11.19-25,25-25,25,11.19,25,25-11.2,25-25,25Z"/>
  <path fill="currentColor" d="m124.78,128.12c0,26.22-23.36,46.79-49.89,46.79s-47.05-19.56-49.71-44.67c-.07-.7-.13-1.41-.18-2.12,0-6.9,5.6-12.5,12.5-12.5s12.6,4.85,12.6,12.5c0,11.92,12.07,21.79,24.79,21.79s24.79-9.23,24.79-21.79c0-.25-.1-15.71-24.79-15.71s-50-12.5-49.89-40.71c1.65-26.12,23.35-46.79,49.89-46.79s47.05,19.56,49.71,44.67c.07.7.13,1.41.18,2.12,0,6.9-5.6,12.5-12.5,12.5s-12.6-8.41-12.6-12.5c0-8.25-9.62-21.79-24.79-21.79-12.72,0-23.22,9.5-24.79,21.79,0,.25.1,15.71,24.79,15.71s49.89,12.5,49.89,40.71Z"/>
  <path fill="currentColor" d="m124.78,71.7c-.05-.71-.11-1.42-.18-2.12.12.69.18,1.4.18,2.12Z"/>
  <path fill="currentColor" d="m.29,130.24c-.12-.69-.18-1.4-.18-2.12.05.71.11,1.42.18,2.12Z"/>
</svg>